# xmcd
#
# Track frame offsets: 
#        150
#        11048
#        27075
#        45769
#        61642
#        76930
#        90653
#        110766
#        125235
#        147830
#        170851
#        205629
#        215810
#
# Disc length: 3079 seconds
#
# Revision: 0
# Processed by: cddbd v1.5.2PL0 Copyright (c) Steve Scherf et al.
# Submitted via: ExactAudioCopy v0.95a4
#
DISCID=b00c050d
DTITLE=Big Head Todd Blues Club - Way Down Inside
DYEAR=2016
DGENRE=Blues
TTITLE0=Hidden Charms
TTITLE1=The Seventh Son
TTITLE2=You Need Love
TTITLE3=Bring It On Home
TTITLE4=Let Me Love You Baby
TTITLE5=Pretty Thing
TTITLE6=Good Advice
TTITLE7=Crazy Mixed Up World
TTITLE8=The Same Thing
TTITLE9=My Love Will Never Die
TTITLE10=It Don't Make Sense You Can't Make Peace
TTITLE11=I Want To Be Loved
TTITLE12=Sittin' And Cryin' The Blues
EXTD=
EXTT0=
EXTT1=
EXTT2=
EXTT3=
EXTT4=
EXTT5=
EXTT6=
EXTT7=
EXTT8=
EXTT9=
EXTT10=
EXTT11=
EXTT12=
PLAYORDER=
